{
    "asset" : {
        "generator" : "Khronos glTF Blender I/O v1.2.75",
        "version" : "2.0"
    },
    "scene" : 0,
    "scenes" : [
        {
            "name" : "Scene",
            "nodes" : [
                5
            ]
        }
    ],
    "nodes" : [
        {
            "mesh" : 0,
            "name" : "Mesh_0"
        },
        {
            "mesh" : 1,
            "name" : "Mesh_1"
        },
        {
            "mesh" : 2,
            "name" : "Mesh_2"
        },
        {
            "children" : [
                0,
                1,
                2
            ],
            "name" : "Computer.obj.cleaner.materialmerger.gles"
        },
        {
            "children" : [
                3
            ],
            "name" : "RootNode (model correction matrix)",
            "rotation" : [
                0,
                0,
                0,
                17.69999885559082
            ]
        },
        {
            "children" : [
                4
            ],
            "name" : "RootNode (gltf orientation matrix)",
            "rotation" : [
                -0.7071067690849304,
                0,
                0,
                0.7071067690849304
            ]
        }
    ],
    "materials" : [
        {
            "doubleSided" : true,
            "emissiveFactor" : [
                0,
                0,
                0
            ],
            "name" : "initialShadingGroup",
            "normalTexture" : {
                "index" : 0,
                "texCoord" : 0
            },
            "occlusionTexture" : {
                "index" : 1,
                "texCoord" : 0
            },
            "pbrMetallicRoughness" : {
                "baseColorTexture" : {
                    "index" : 2,
                    "texCoord" : 0
                },
                "metallicRoughnessTexture" : {
                    "index" : 1,
                    "texCoord" : 0
                }
            }
        },
        {
            "doubleSided" : true,
            "emissiveFactor" : [
                1,
                1,
                1
            ],
            "emissiveTexture" : {
                "index" : 3,
                "texCoord" : 0
            },
            "name" : "lambert2SG",
            "normalTexture" : {
                "index" : 4,
                "texCoord" : 0
            },
            "occlusionTexture" : {
                "index" : 5,
                "texCoord" : 0
            },
            "pbrMetallicRoughness" : {
                "baseColorTexture" : {
                    "index" : 6,
                    "texCoord" : 0
                },
                "metallicRoughnessTexture" : {
                    "index" : 5,
                    "texCoord" : 0
                }
            }
        },
        {
            "doubleSided" : true,
            "emissiveFactor" : [
                0,
                0,
                0
            ],
            "name" : "lambert3SG",
            "normalTexture" : {
                "index" : 7,
                "texCoord" : 0
            },
            "occlusionTexture" : {
                "index" : 8,
                "texCoord" : 0
            },
            "pbrMetallicRoughness" : {
                "baseColorTexture" : {
                    "index" : 9,
                    "texCoord" : 0
                },
                "metallicRoughnessTexture" : {
                    "index" : 8,
                    "texCoord" : 0
                }
            }
        }
    ],
    "meshes" : [
        {
            "name" : "Mesh_0",
            "primitives" : [
                {
                    "attributes" : {
                        "POSITION" : 0,
                        "NORMAL" : 1,
                        "TEXCOORD_0" : 2
                    },
                    "indices" : 3,
                    "material" : 0
                }
            ]
        },
        {
            "name" : "Mesh_1",
            "primitives" : [
                {
                    "attributes" : {
                        "POSITION" : 4,
                        "NORMAL" : 5,
                        "TEXCOORD_0" : 6
                    },
                    "indices" : 7,
                    "material" : 1
                }
            ]
        },
        {
            "name" : "Mesh_2",
            "primitives" : [
                {
                    "attributes" : {
                        "POSITION" : 8,
                        "NORMAL" : 9,
                        "TEXCOORD_0" : 10
                    },
                    "indices" : 11,
                    "material" : 2
                }
            ]
        }
    ],
    "textures" : [
        {
            "source" : 0
        },
        {
            "source" : 1
        },
        {
            "source" : 2
        },
        {
            "source" : 3
        },
        {
            "source" : 4
        },
        {
            "source" : 5
        },
        {
            "source" : 6
        },
        {
            "source" : 7
        },
        {
            "source" : 8
        },
        {
            "source" : 9
        }
    ],
    "images" : [
        {
            "mimeType" : "image/png",
            "name" : "initialShadingGroup_normal",
            "uri" : "textures/initialShadingGroup_normal.png"
        },
        {
            "mimeType" : "image/png",
            "name" : "initialShadingGroup_metallicRoughness",
            "uri" : "textures/initialShadingGroup_metallicRoughness.png"
        },
        {
            "mimeType" : "image/png",
            "name" : "initialShadingGroup_baseColor",
            "uri" : "textures/initialShadingGroup_baseColor.png"
        },
        {
            "mimeType" : "image/png",
            "name" : "lambert2SG_emissive",
            "uri" : "textures/lambert2SG_emissive.png"
        },
        {
            "mimeType" : "image/png",
            "name" : "lambert2SG_normal",
            "uri" : "textures/lambert2SG_normal.png"
        },
        {
            "mimeType" : "image/png",
            "name" : "lambert2SG_metallicRoughness",
            "uri" : "textures/lambert2SG_metallicRoughness.png"
        },
        {
            "mimeType" : "image/png",
            "name" : "lambert2SG_baseColor",
            "uri" : "textures/lambert2SG_baseColor.png"
        },
        {
            "mimeType" : "image/png",
            "name" : "lambert3SG_normal",
            "uri" : "textures/lambert3SG_normal.png"
        },
        {
            "mimeType" : "image/png",
            "name" : "lambert3SG_metallicRoughness",
            "uri" : "textures/lambert3SG_metallicRoughness.png"
        },
        {
            "mimeType" : "image/png",
            "name" : "lambert3SG_baseColor",
            "uri" : "textures/lambert3SG_baseColor.png"
        }
    ],
    "accessors" : [
        {
            "bufferView" : 0,
            "componentType" : 5126,
            "count" : 677,
            "max" : [
                1,
                1,
                0.6398990154266357
            ],
            "min" : [
                -0.5000000596046448,
                -0.7475130558013916,
                -0.5
            ],
            "type" : "VEC3"
        },
        {
            "bufferView" : 1,
            "componentType" : 5126,
            "count" : 677,
            "type" : "VEC3"
        },
        {
            "bufferView" : 2,
            "componentType" : 5126,
            "count" : 677,
            "type" : "VEC2"
        },
        {
            "bufferView" : 3,
            "componentType" : 5123,
            "count" : 1389,
            "type" : "SCALAR"
        },
        {
            "bufferView" : 4,
            "componentType" : 5126,
            "count" : 49,
            "max" : [
                0.45223701000213623,
                -0.6148380041122437,
                0.5859370231628418
            ],
            "min" : [
                -0.3352139890193939,
                -0.735725998878479,
                -0.09692899882793427
            ],
            "type" : "VEC3"
        },
        {
            "bufferView" : 5,
            "componentType" : 5126,
            "count" : 49,
            "type" : "VEC3"
        },
        {
            "bufferView" : 6,
            "componentType" : 5126,
            "count" : 49,
            "type" : "VEC2"
        },
        {
            "bufferView" : 7,
            "componentType" : 5123,
            "count" : 216,
            "type" : "SCALAR"
        },
        {
            "bufferView" : 8,
            "componentType" : 5126,
            "count" : 158,
            "max" : [
                0.8811709880828857,
                -0.6145359873771667,
                0.34227898716926575
            ],
            "min" : [
                0.6503549814224243,
                -0.7669540047645569,
                -0.12527500092983246
            ],
            "type" : "VEC3"
        },
        {
            "bufferView" : 9,
            "componentType" : 5126,
            "count" : 158,
            "type" : "VEC3"
        },
        {
            "bufferView" : 10,
            "componentType" : 5126,
            "count" : 158,
            "type" : "VEC2"
        },
        {
            "bufferView" : 11,
            "componentType" : 5123,
            "count" : 216,
            "type" : "SCALAR"
        }
    ],
    "bufferViews" : [
        {
            "buffer" : 0,
            "byteLength" : 8124,
            "byteOffset" : 0
        },
        {
            "buffer" : 0,
            "byteLength" : 8124,
            "byteOffset" : 8124
        },
        {
            "buffer" : 0,
            "byteLength" : 5416,
            "byteOffset" : 16248
        },
        {
            "buffer" : 0,
            "byteLength" : 2778,
            "byteOffset" : 21664
        },
        {
            "buffer" : 0,
            "byteLength" : 588,
            "byteOffset" : 24444
        },
        {
            "buffer" : 0,
            "byteLength" : 588,
            "byteOffset" : 25032
        },
        {
            "buffer" : 0,
            "byteLength" : 392,
            "byteOffset" : 25620
        },
        {
            "buffer" : 0,
            "byteLength" : 432,
            "byteOffset" : 26012
        },
        {
            "buffer" : 0,
            "byteLength" : 1896,
            "byteOffset" : 26444
        },
        {
            "buffer" : 0,
            "byteLength" : 1896,
            "byteOffset" : 28340
        },
        {
            "buffer" : 0,
            "byteLength" : 1264,
            "byteOffset" : 30236
        },
        {
            "buffer" : 0,
            "byteLength" : 432,
            "byteOffset" : 31500
        }
    ],
    "buffers" : [
        {
            "byteLength" : 31932,
            "uri" : "scene.bin"
        }
    ]
}
