{
    "asset" : {
        "generator" : "Khronos glTF Blender I/O v1.2.75",
        "version" : "2.0"
    },
    "scene" : 0,
    "scenes" : [
        {
            "name" : "Scene",
            "nodes" : [
                6,
                7,
                8
            ]
        }
    ],
    "nodes" : [
        {
            "mesh" : 0,
            "name" : "defaultMaterial.001"
        },
        {
            "children" : [
                0
            ],
            "name" : "ChamferBox001"
        },
        {
            "mesh" : 1,
            "name" : "defaultMaterial"
        },
        {
            "children" : [
                2
            ],
            "name" : "kurki"
        },
        {
            "children" : [
                1,
                3
            ],
            "name" : "Collada visual scene group",
            "rotation" : [
                0.7071068286895752,
                0,
                0,
                0.7071068286895752
            ]
        },
        {
            "children" : [
                4
            ],
            "name" : "RootNode (model correction matrix)"
        },
        {
            "children" : [
                5
            ],
            "name" : "RootNode (gltf orientation matrix)",
            "rotation" : [
                -0.7071067690849304,
                0,
                0,
                0.7071067690849304
            ]
        },
        {
            "name" : "Light",
            "rotation" : [
                0.16907575726509094,
                0.7558803558349609,
                -0.27217137813568115,
                0.570947527885437
            ],
            "translation" : [
                4.076245307922363,
                5.903861999511719,
                -1.0054539442062378
            ]
        },
        {
            "name" : "Camera",
            "rotation" : [
                0.483536034822464,
                0.33687159419059753,
                -0.20870360732078552,
                0.7804827094078064
            ],
            "translation" : [
                7.358891487121582,
                4.958309173583984,
                6.925790786743164
            ]
        }
    ],
    "materials" : [
        {
            "doubleSided" : true,
            "emissiveFactor" : [
                1,
                1,
                1
            ],
            "emissiveTexture" : {
                "index" : 0,
                "texCoord" : 0
            },
            "name" : "01___Default",
            "normalTexture" : {
                "index" : 1,
                "texCoord" : 0
            },
            "pbrMetallicRoughness" : {
                "baseColorTexture" : {
                    "index" : 2,
                    "texCoord" : 0
                },
                "metallicRoughnessTexture" : {
                    "index" : 3,
                    "texCoord" : 0
                }
            }
        }
    ],
    "meshes" : [
        {
            "name" : "defaultMaterial.001",
            "primitives" : [
                {
                    "attributes" : {
                        "POSITION" : 0,
                        "NORMAL" : 1,
                        "TEXCOORD_0" : 2
                    },
                    "indices" : 3,
                    "material" : 0
                }
            ]
        },
        {
            "name" : "defaultMaterial",
            "primitives" : [
                {
                    "attributes" : {
                        "POSITION" : 4,
                        "NORMAL" : 5,
                        "TEXCOORD_0" : 6
                    },
                    "indices" : 7,
                    "material" : 0
                }
            ]
        }
    ],
    "textures" : [
        {
            "source" : 0
        },
        {
            "source" : 1
        },
        {
            "source" : 2
        },
        {
            "source" : 3
        }
    ],
    "images" : [
        {
            "mimeType" : "image/jpeg",
            "name" : "01___Default_emissive",
            "uri" : "textures/01___Default_emissive.jpg"
        },
        {
            "mimeType" : "image/jpeg",
            "name" : "01___Default_normal",
            "uri" : "textures/01___Default_normal.jpg"
        },
        {
            "mimeType" : "image/jpeg",
            "name" : "01___Default_baseColor",
            "uri" : "textures/01___Default_baseColor.jpg"
        },
        {
            "mimeType" : "image/png",
            "name" : "01___Default_metallicRoughness",
            "uri" : "textures/01___Default_metallicRoughness.png"
        }
    ],
    "accessors" : [
        {
            "bufferView" : 0,
            "componentType" : 5126,
            "count" : 899,
            "max" : [
                0.5633159875869751,
                0.7078459858894348,
                1
            ],
            "min" : [
                -0.5286890268325806,
                -0.7078459858894348,
                -1
            ],
            "type" : "VEC3"
        },
        {
            "bufferView" : 1,
            "componentType" : 5126,
            "count" : 899,
            "type" : "VEC3"
        },
        {
            "bufferView" : 2,
            "componentType" : 5126,
            "count" : 899,
            "type" : "VEC2"
        },
        {
            "bufferView" : 3,
            "componentType" : 5123,
            "count" : 2100,
            "type" : "SCALAR"
        },
        {
            "bufferView" : 4,
            "componentType" : 5126,
            "count" : 434,
            "max" : [
                -0.48378899693489075,
                0.48282501101493835,
                0.8114609718322754
            ],
            "min" : [
                -0.5633159875869751,
                -0.04995650053024292,
                0.7002480030059814
            ],
            "type" : "VEC3"
        },
        {
            "bufferView" : 5,
            "componentType" : 5126,
            "count" : 434,
            "type" : "VEC3"
        },
        {
            "bufferView" : 6,
            "componentType" : 5126,
            "count" : 434,
            "type" : "VEC2"
        },
        {
            "bufferView" : 7,
            "componentType" : 5123,
            "count" : 744,
            "type" : "SCALAR"
        }
    ],
    "bufferViews" : [
        {
            "buffer" : 0,
            "byteLength" : 10788,
            "byteOffset" : 0
        },
        {
            "buffer" : 0,
            "byteLength" : 10788,
            "byteOffset" : 10788
        },
        {
            "buffer" : 0,
            "byteLength" : 7192,
            "byteOffset" : 21576
        },
        {
            "buffer" : 0,
            "byteLength" : 4200,
            "byteOffset" : 28768
        },
        {
            "buffer" : 0,
            "byteLength" : 5208,
            "byteOffset" : 32968
        },
        {
            "buffer" : 0,
            "byteLength" : 5208,
            "byteOffset" : 38176
        },
        {
            "buffer" : 0,
            "byteLength" : 3472,
            "byteOffset" : 43384
        },
        {
            "buffer" : 0,
            "byteLength" : 1488,
            "byteOffset" : 46856
        }
    ],
    "buffers" : [
        {
            "byteLength" : 48344,
            "uri" : "scene.bin"
        }
    ]
}
